<svg width="167" height="167" viewBox="0 0 167 167" fill="none" xmlns="http://www.w3.org/2000/svg">
<circle cx="83.5" cy="83.5" r="83.5" fill="#353535"/>
<path d="M25.86 82.4C25.86 79.8 26.32 77.26 27.24 74.78C28.2 72.26 29.58 69.98 31.38 67.94C33.18 65.86 35.38 64.22 37.98 63.02C40.58 61.78 43.54 61.16 46.86 61.16C50.78 61.16 54.16 62.02 57 63.74C59.88 65.46 62.02 67.7 63.42 70.46L57.06 74.84C56.34 73.24 55.4 71.98 54.24 71.06C53.08 70.1 51.84 69.44 50.52 69.08C49.2 68.68 47.9 68.48 46.62 68.48C44.54 68.48 42.72 68.9 41.16 69.74C39.64 70.58 38.36 71.68 37.32 73.04C36.28 74.4 35.5 75.92 34.98 77.6C34.5 79.28 34.26 80.96 34.26 82.64C34.26 84.52 34.56 86.34 35.16 88.1C35.76 89.82 36.6 91.36 37.68 92.72C38.8 94.04 40.12 95.1 41.64 95.9C43.2 96.66 44.9 97.04 46.74 97.04C48.06 97.04 49.4 96.82 50.76 96.38C52.12 95.94 53.38 95.24 54.54 94.28C55.7 93.32 56.6 92.08 57.24 90.56L64.02 94.46C63.18 96.58 61.8 98.38 59.88 99.86C58 101.34 55.88 102.46 53.52 103.22C51.16 103.98 48.82 104.36 46.5 104.36C43.46 104.36 40.68 103.74 38.16 102.5C35.64 101.22 33.46 99.54 31.62 97.46C29.82 95.34 28.4 92.98 27.36 90.38C26.36 87.74 25.86 85.08 25.86 82.4ZM104.141 82.4C104.141 79.8 104.601 77.26 105.521 74.78C106.481 72.26 107.861 69.98 109.661 67.94C111.461 65.86 113.661 64.22 116.261 63.02C118.861 61.78 121.821 61.16 125.141 61.16C129.061 61.16 132.441 62.02 135.281 63.74C138.161 65.46 140.301 67.7 141.701 70.46L135.341 74.84C134.621 73.24 133.681 71.98 132.521 71.06C131.361 70.1 130.121 69.44 128.801 69.08C127.481 68.68 126.181 68.48 124.901 68.48C122.821 68.48 121.001 68.9 119.441 69.74C117.921 70.58 116.641 71.68 115.601 73.04C114.561 74.4 113.781 75.92 113.261 77.6C112.781 79.28 112.541 80.96 112.541 82.64C112.541 84.52 112.841 86.34 113.441 88.1C114.041 89.82 114.881 91.36 115.961 92.72C117.081 94.04 118.401 95.1 119.921 95.9C121.481 96.66 123.181 97.04 125.021 97.04C126.341 97.04 127.681 96.82 129.041 96.38C130.401 95.94 131.661 95.24 132.821 94.28C133.981 93.32 134.881 92.08 135.521 90.56L142.301 94.46C141.461 96.58 140.081 98.38 138.161 99.86C136.281 101.34 134.161 102.46 131.801 103.22C129.441 103.98 127.101 104.36 124.781 104.36C121.741 104.36 118.961 103.74 116.441 102.5C113.921 101.22 111.741 99.54 109.901 97.46C108.101 95.34 106.681 92.98 105.641 90.38C104.641 87.74 104.141 85.08 104.141 82.4Z" fill="#C7E6F2"/>
<path d="M101.433 68.66H87.8128V104H79.5928V68.66H65.9728V61.4H101.433V68.66Z" fill="#43ACEE"/>
</svg>
